<svg xmlns="http://www.w3.org/2000/svg" width="105.03" height="105.067" viewBox="0 0 105.03 105.067">
  <g id="shape1" transform="translate(-338.248 -337.967)">
    <path id="Path_484" data-name="Path 484" d="M423.02,368.109c-1.528-.138-3.076-.208-4.6-.208a49.824,49.824,0,0,0-28.77,9.1,1.088,1.088,0,0,1-1.661-1.222l1.218-3.8a2.476,2.476,0,1,0-4.716-1.511l-4.767,14.872a2.476,2.476,0,0,0,2.358,3.23c.051,0,.1,0,.151,0l16.447-.859a2.475,2.475,0,1,0-.262-4.943l-5.257.275a1.088,1.088,0,0,1-.682-1.977,44.951,44.951,0,0,1,25.959-8.212c1.372,0,2.765.063,4.139.186a45.4,45.4,0,0,1-4.02,90.629h0a45.413,45.413,0,0,1-45.414-43.308c0-.016,0-.032,0-.048l0-2.041a2.476,2.476,0,0,0-4.951,0l0,2.119c0,.029,0,.055,0,.082a50.367,50.367,0,1,0,54.833-52.366ZM466.4,418.231a1.088,1.088,0,0,1,1.027,1.146c-.88,16.061-7.63,26.492-13.136,32.414a40.857,40.857,0,0,1-11.948,9.138,1.088,1.088,0,0,1-.887-1.987,39.558,39.558,0,0,0,11.311-8.707c5.232-5.652,11.646-15.614,12.488-30.977A1.092,1.092,0,0,1,466.4,418.231Z" transform="translate(-27.758 -27.758)" fill="#29b2b4"/>
    <path id="Path_485" data-name="Path 485" d="M692.435,665.768l9.251.484c.046,0,.1,0,.151,0a2.844,2.844,0,0,0,2.708-3.712l-2.685-8.358a2.838,2.838,0,0,0-5.443.117,1.088,1.088,0,0,1-1.543.682,29.824,29.824,0,0,0-36.352,7.437,29.759,29.759,0,0,0,22.784,48.828c.905,0,1.821-.041,2.722-.122a29.773,29.773,0,0,0,27.067-28.32c0-.054,0-.09,0-.125v-1.19a2.842,2.842,0,1,0-5.684,0v1.1c0,.018,0,.035,0,.052a24.094,24.094,0,0,1-21.9,22.819c-.728.065-1.466.1-2.193.1a24.066,24.066,0,0,1-18.435-39.495,24.131,24.131,0,0,1,27.358-6.934,1.088,1.088,0,0,1,.358,1.792,2.763,2.763,0,0,0-.862,1.853,2.842,2.842,0,0,0,2.693,2.988Zm-28.222,34.27a1.088,1.088,0,0,1-1.441,1.631,27.151,27.151,0,0,1-9.615-20.352,28.3,28.3,0,0,1,1.715-10.375,1.088,1.088,0,0,1,2.012.829,26.647,26.647,0,0,0-1.549,9.6A24.766,24.766,0,0,0,664.213,700.038Z" transform="translate(-290.578 -290.98)" fill="#6a73b4"/>
    <path id="Path_486" data-name="Path 486" d="M1367.917,1100.972a1.088,1.088,0,1,0,.887,1.987,40.856,40.856,0,0,0,11.948-9.138c5.507-5.922,12.256-16.353,13.136-32.414a1.088,1.088,0,1,0-2.172-.119c-.842,15.362-7.256,25.324-12.488,30.977A39.556,39.556,0,0,1,1367.917,1100.972Z" transform="translate(-954.223 -669.789)" fill="#fff"/>
    <path id="Path_487" data-name="Path 487" d="M676.648,907.931a1.088,1.088,0,0,0-2.012-.829,28.306,28.306,0,0,0-1.714,10.375,27.15,27.15,0,0,0,9.615,20.352,1.088,1.088,0,0,0,1.441-1.631,24.766,24.766,0,0,1-8.879-18.669A26.644,26.644,0,0,1,676.648,907.931Z" transform="translate(-310.343 -527.139)" fill="#fff"/>
    <path id="Path_488" data-name="Path 488" d="M431.084,356.843a52.2,52.2,0,0,0-35.627-18.66c-1.593-.144-3.206-.216-4.8-.216a51.94,51.94,0,0,0-27.417,7.78l.276-.861a4.652,4.652,0,1,0-8.86-2.839l-4.767,14.873a4.652,4.652,0,0,0,4.43,6.069c.073,0,.147,0,.24,0l16.471-.86a4.651,4.651,0,0,0-.249-9.295c-.076,0-.153,0-.235.006l-1.123.059a42.733,42.733,0,0,1,21.251-5.624c1.307,0,2.634.06,3.944.178a43.229,43.229,0,0,1-3.825,86.286h0a43.237,43.237,0,0,1-43.239-41.208l0-2.015a4.651,4.651,0,0,0-9.3.007l0,2.119c0,.077,0,.152,0,.2a52.535,52.535,0,1,0,92.827-36Zm9.811,38.18a50.359,50.359,0,0,1-100.466-2.306c0-.027,0-.053,0-.081l0-2.119a2.476,2.476,0,0,1,4.951,0l0,2.041c0,.016,0,.032,0,.048a45.413,45.413,0,0,0,45.414,43.308h0a45.406,45.406,0,0,0,4.02-90.629c-1.374-.124-2.767-.186-4.139-.186a44.951,44.951,0,0,0-25.959,8.212,1.088,1.088,0,0,0,.682,1.977l5.258-.275a2.475,2.475,0,1,1,.262,4.943l-16.447.859c-.049,0-.1,0-.151,0a2.476,2.476,0,0,1-2.358-3.23l4.767-14.872a2.476,2.476,0,0,1,4.716,1.511l-1.218,3.8a1.088,1.088,0,0,0,1.661,1.222,49.824,49.824,0,0,1,28.77-9.1c1.525,0,3.073.07,4.6.208a50.336,50.336,0,0,1,45.633,54.672Z" transform="translate(0 0)" fill="#032442"/>
    <path id="Path_489" data-name="Path 489" d="M673.816,640.668a5.082,5.082,0,0,0,4.233-1.951,5.02,5.02,0,0,0,.8-4.6l-2.684-8.358a5.016,5.016,0,0,0-9.117-.983,32,32,0,0,0-37.964,8.49,31.934,31.934,0,0,0,24.454,52.4c.97,0,1.951-.044,2.917-.131A31.948,31.948,0,0,0,685.5,655.166c0-.079.006-.161.006-.24v-1.19a5.018,5.018,0,1,0-10.036,0v1.073a21.918,21.918,0,0,1-19.915,20.731c-.663.059-1.336.09-2,.09A21.89,21.89,0,0,1,636.8,639.706a21.961,21.961,0,0,1,23.552-6.785,4.865,4.865,0,0,0-.541,1.988,5.018,5.018,0,0,0,4.752,5.274Zm-11.11-3.594a2.822,2.822,0,0,1-.727-2.052,2.763,2.763,0,0,1,.862-1.853,1.088,1.088,0,0,0-.358-1.792,24.063,24.063,0,0,0-24.311,40.834,23.738,23.738,0,0,0,15.388,5.6c.727,0,1.465-.033,2.193-.1a24.094,24.094,0,0,0,21.9-22.819c0-.018,0-.035,0-.052v-1.1a2.842,2.842,0,1,1,5.684,0v1.19c0,.035,0,.071,0,.125a29.773,29.773,0,0,1-27.067,28.32c-.9.081-1.817.122-2.722.122a29.757,29.757,0,0,1-22.784-48.828,29.823,29.823,0,0,1,36.352-7.437,1.088,1.088,0,0,0,1.543-.682,2.839,2.839,0,0,1,5.443-.117l2.685,8.358a2.844,2.844,0,0,1-2.708,3.712c-.053,0-.1,0-.151,0l-9.251-.484A2.825,2.825,0,0,1,662.706,637.075Z" transform="translate(-262.814 -263.223)" fill="#032442"/>
    <path id="Path_490" data-name="Path 490" d="M864.674,850.672a.725.725,0,0,0,1.019.118l14.939-11.828,6.313,6.222a1.088,1.088,0,1,0,1.527-1.55l-6.121-6.033,2.062-1.632a.725.725,0,1,0-.9-1.137l-1.631,1.291V821.582a1.088,1.088,0,0,0-2.176,0v16.012a1.1,1.1,0,0,0,.026.231l-14.939,11.828A.725.725,0,0,0,864.674,850.672Z" transform="translate(-488.014 -447.452)" fill="#032442"/>
  </g>
</svg>
